<svg xmlns="http://www.w3.org/2000/svg" version="1.1" xmlns:xlink="http://www.w3.org/1999/xlink" xmlns:svgjs="http://svgjs.com/svgjs" width="1440" height="1024" preserveAspectRatio="none" viewBox="0 0 1440 1024"><g mask="url(&quot;#SvgjsMask1113&quot;)" fill="none"><path d="M368 1010L-224 1602" stroke-width="10" stroke="url(#SvgjsLinearGradient1114)" stroke-linecap="round" class="TopRight"></path><path d="M1227 986L777 1436" stroke-width="6" stroke="url(#SvgjsLinearGradient1115)" stroke-linecap="round" class="BottomLeft"></path><path d="M929 701L607 1023" stroke-width="8" stroke="url(#SvgjsLinearGradient1114)" stroke-linecap="round" class="TopRight"></path><path d="M1142 771L1690 223" stroke-width="10" stroke="url(#SvgjsLinearGradient1114)" stroke-linecap="round" class="TopRight"></path><path d="M1145 366L1750 -239" stroke-width="8" stroke="url(#SvgjsLinearGradient1114)" stroke-linecap="round" class="TopRight"></path><path d="M1101 94L1695 -500" stroke-width="10" stroke="url(#SvgjsLinearGradient1115)" stroke-linecap="round" class="BottomLeft"></path><path d="M1332 116L1070 378" stroke-width="6" stroke="url(#SvgjsLinearGradient1114)" stroke-linecap="round" class="TopRight"></path><path d="M1385 714L730 1369" stroke-width="8" stroke="url(#SvgjsLinearGradient1114)" stroke-linecap="round" class="TopRight"></path><path d="M1402 504L1875 31" stroke-width="10" stroke="url(#SvgjsLinearGradient1115)" stroke-linecap="round" class="BottomLeft"></path><path d="M730 763L210 1283" stroke-width="10" stroke="url(#SvgjsLinearGradient1115)" stroke-linecap="round" class="BottomLeft"></path><path d="M526 92L246 372" stroke-width="6" stroke="url(#SvgjsLinearGradient1115)" stroke-linecap="round" class="BottomLeft"></path><path d="M1337 708L1069 976" stroke-width="8" stroke="url(#SvgjsLinearGradient1115)" stroke-linecap="round" class="BottomLeft"></path><path d="M27 578L-402 1007" stroke-width="10" stroke="url(#SvgjsLinearGradient1115)" stroke-linecap="round" class="BottomLeft"></path><path d="M427 80L1081 -574" stroke-width="6" stroke="url(#SvgjsLinearGradient1115)" stroke-linecap="round" class="BottomLeft"></path><path d="M923 604L523 1004" stroke-width="6" stroke="url(#SvgjsLinearGradient1115)" stroke-linecap="round" class="BottomLeft"></path><path d="M1227 865L705 1387" stroke-width="10" stroke="url(#SvgjsLinearGradient1114)" stroke-linecap="round" class="TopRight"></path><path d="M584 940L-29 1553" stroke-width="10" stroke="url(#SvgjsLinearGradient1114)" stroke-linecap="round" class="TopRight"></path><path d="M752 145L388 509" stroke-width="8" stroke="url(#SvgjsLinearGradient1114)" stroke-linecap="round" class="TopRight"></path><path d="M701 529L364 866" stroke-width="6" stroke="url(#SvgjsLinearGradient1115)" stroke-linecap="round" class="BottomLeft"></path><path d="M1062 270L1771 -439" stroke-width="10" stroke="url(#SvgjsLinearGradient1114)" stroke-linecap="round" class="TopRight"></path><path d="M970 783L1641 112" stroke-width="8" stroke="url(#SvgjsLinearGradient1115)" stroke-linecap="round" class="BottomLeft"></path><path d="M355 473L785 43" stroke-width="6" stroke="url(#SvgjsLinearGradient1114)" stroke-linecap="round" class="TopRight"></path><path d="M227 217L-56 500" stroke-width="10" stroke="url(#SvgjsLinearGradient1114)" stroke-linecap="round" class="TopRight"></path><path d="M1351 651L2105 -103" stroke-width="6" stroke="url(#SvgjsLinearGradient1114)" stroke-linecap="round" class="TopRight"></path><path d="M1117 195L1825 -513" stroke-width="8" stroke="url(#SvgjsLinearGradient1115)" stroke-linecap="round" class="BottomLeft"></path><path d="M764 529L452 841" stroke-width="10" stroke="url(#SvgjsLinearGradient1115)" stroke-linecap="round" class="BottomLeft"></path><path d="M790 977L237 1530" stroke-width="10" stroke="url(#SvgjsLinearGradient1115)" stroke-linecap="round" class="BottomLeft"></path><path d="M568 172L1243 -503" stroke-width="10" stroke="url(#SvgjsLinearGradient1114)" stroke-linecap="round" class="TopRight"></path><path d="M1115 435L718 832" stroke-width="10" stroke="url(#SvgjsLinearGradient1114)" stroke-linecap="round" class="TopRight"></path><path d="M1192 669L1769 92" stroke-width="10" stroke="url(#SvgjsLinearGradient1114)" stroke-linecap="round" class="TopRight"></path><path d="M1205 426L1892 -261" stroke-width="6" stroke="url(#SvgjsLinearGradient1114)" stroke-linecap="round" class="TopRight"></path><path d="M705 360L317 748" stroke-width="6" stroke="url(#SvgjsLinearGradient1114)" stroke-linecap="round" class="TopRight"></path><path d="M586 831L294 1123" stroke-width="8" stroke="url(#SvgjsLinearGradient1115)" stroke-linecap="round" class="BottomLeft"></path><path d="M453 735L1007 181" stroke-width="6" stroke="url(#SvgjsLinearGradient1114)" stroke-linecap="round" class="TopRight"></path><path d="M1086 550L416 1220" stroke-width="8" stroke="url(#SvgjsLinearGradient1114)" stroke-linecap="round" class="TopRight"></path><path d="M157 156L-200 513" stroke-width="10" stroke="url(#SvgjsLinearGradient1114)" stroke-linecap="round" class="TopRight"></path><path d="M998 134L536 596" stroke-width="10" stroke="url(#SvgjsLinearGradient1114)" stroke-linecap="round" class="TopRight"></path><path d="M750 820L1141 429" stroke-width="8" stroke="url(#SvgjsLinearGradient1115)" stroke-linecap="round" class="BottomLeft"></path><path d="M351 1006L-345 1702" stroke-width="6" stroke="url(#SvgjsLinearGradient1114)" stroke-linecap="round" class="TopRight"></path><path d="M305 503L599 209" stroke-width="8" stroke="url(#SvgjsLinearGradient1114)" stroke-linecap="round" class="TopRight"></path><path d="M1047 836L1617 266" stroke-width="8" stroke="url(#SvgjsLinearGradient1115)" stroke-linecap="round" class="BottomLeft"></path><path d="M1304 22L925 401" stroke-width="10" stroke="url(#SvgjsLinearGradient1114)" stroke-linecap="round" class="TopRight"></path><path d="M839 749L1122 466" stroke-width="10" stroke="url(#SvgjsLinearGradient1114)" stroke-linecap="round" class="TopRight"></path><path d="M830 640L1466 4" stroke-width="6" stroke="url(#SvgjsLinearGradient1114)" stroke-linecap="round" class="TopRight"></path><path d="M929 501L1393 37" stroke-width="8" stroke="url(#SvgjsLinearGradient1114)" stroke-linecap="round" class="TopRight"></path></g><defs><mask id="SvgjsMask1113"><rect width="1440" height="1024" fill="#ffffff"></rect></mask><linearGradient x1="0%" y1="100%" x2="100%" y2="0%" id="SvgjsLinearGradient1114"><stop stop-color="rgba(197, 197, 197, 0)" offset="0"></stop><stop stop-color="rgba(197, 197, 197, 1)" offset="1"></stop></linearGradient><linearGradient x1="100%" y1="0%" x2="0%" y2="100%" id="SvgjsLinearGradient1115"><stop stop-color="rgba(197, 197, 197, 0)" offset="0"></stop><stop stop-color="rgba(197, 197, 197, 1)" offset="1"></stop></linearGradient></defs></svg>