<svg xmlns="http://www.w3.org/2000/svg" version="1.1" xmlns:xlink="http://www.w3.org/1999/xlink" xmlns:svgjs="http://svgjs.com/svgjs" width="1440" height="560" preserveAspectRatio="none" viewBox="0 0 1440 560"><g mask="url(&quot;#SvgjsMask1038&quot;)" fill="none"><path d="M788 232L528 492" stroke-width="8" stroke="url(#SvgjsLinearGradient1039)" stroke-linecap="round" class="TopRight"></path><path d="M1255 245L1027 473" stroke-width="10" stroke="url(#SvgjsLinearGradient1040)" stroke-linecap="round" class="BottomLeft"></path><path d="M789 151L437 503" stroke-width="8" stroke="url(#SvgjsLinearGradient1040)" stroke-linecap="round" class="BottomLeft"></path><path d="M501 398L760 139" stroke-width="10" stroke="url(#SvgjsLinearGradient1039)" stroke-linecap="round" class="TopRight"></path><path d="M10 296L351 -45" stroke-width="10" stroke="url(#SvgjsLinearGradient1040)" stroke-linecap="round" class="BottomLeft"></path><path d="M341 535L200 676" stroke-width="6" stroke="url(#SvgjsLinearGradient1040)" stroke-linecap="round" class="BottomLeft"></path><path d="M443 472L198 717" stroke-width="10" stroke="url(#SvgjsLinearGradient1039)" stroke-linecap="round" class="TopRight"></path><path d="M498 465L665 298" stroke-width="10" stroke="url(#SvgjsLinearGradient1040)" stroke-linecap="round" class="BottomLeft"></path><path d="M817 470L1216 71" stroke-width="6" stroke="url(#SvgjsLinearGradient1039)" stroke-linecap="round" class="TopRight"></path><path d="M433 379L850 -38" stroke-width="10" stroke="url(#SvgjsLinearGradient1039)" stroke-linecap="round" class="TopRight"></path><path d="M1292 276L1666 -98" stroke-width="8" stroke="url(#SvgjsLinearGradient1040)" stroke-linecap="round" class="BottomLeft"></path><path d="M1180 236L1005 411" stroke-width="10" stroke="url(#SvgjsLinearGradient1040)" stroke-linecap="round" class="BottomLeft"></path><path d="M824 328L1220 -68" stroke-width="8" stroke="url(#SvgjsLinearGradient1039)" stroke-linecap="round" class="TopRight"></path><path d="M621 57L307 371" stroke-width="8" stroke="url(#SvgjsLinearGradient1040)" stroke-linecap="round" class="BottomLeft"></path><path d="M551 24L291 284" stroke-width="8" stroke="url(#SvgjsLinearGradient1039)" stroke-linecap="round" class="TopRight"></path><path d="M820 356L1166 10" stroke-width="8" stroke="url(#SvgjsLinearGradient1039)" stroke-linecap="round" class="TopRight"></path><path d="M134 387L525 -4" stroke-width="8" stroke="url(#SvgjsLinearGradient1040)" stroke-linecap="round" class="BottomLeft"></path><path d="M399 169L66 502" stroke-width="8" stroke="url(#SvgjsLinearGradient1039)" stroke-linecap="round" class="TopRight"></path><path d="M261 524L561 224" stroke-width="6" stroke="url(#SvgjsLinearGradient1039)" stroke-linecap="round" class="TopRight"></path><path d="M676 49L299 426" stroke-width="10" stroke="url(#SvgjsLinearGradient1039)" stroke-linecap="round" class="TopRight"></path><path d="M647 310L442 515" stroke-width="10" stroke="url(#SvgjsLinearGradient1039)" stroke-linecap="round" class="TopRight"></path><path d="M1028 211L613 626" stroke-width="6" stroke="url(#SvgjsLinearGradient1039)" stroke-linecap="round" class="TopRight"></path><path d="M936 131L648 419" stroke-width="10" stroke="url(#SvgjsLinearGradient1040)" stroke-linecap="round" class="BottomLeft"></path><path d="M838 140L630 348" stroke-width="6" stroke="url(#SvgjsLinearGradient1040)" stroke-linecap="round" class="BottomLeft"></path><path d="M84 512L260 336" stroke-width="8" stroke="url(#SvgjsLinearGradient1039)" stroke-linecap="round" class="TopRight"></path><path d="M1305 161L1023 443" stroke-width="8" stroke="url(#SvgjsLinearGradient1040)" stroke-linecap="round" class="BottomLeft"></path><path d="M748 460L570 638" stroke-width="10" stroke="url(#SvgjsLinearGradient1040)" stroke-linecap="round" class="BottomLeft"></path><path d="M311 439L-14 764" stroke-width="8" stroke="url(#SvgjsLinearGradient1039)" stroke-linecap="round" class="TopRight"></path><path d="M226 488L399 315" stroke-width="8" stroke="url(#SvgjsLinearGradient1039)" stroke-linecap="round" class="TopRight"></path><path d="M821 192L551 462" stroke-width="6" stroke="url(#SvgjsLinearGradient1040)" stroke-linecap="round" class="BottomLeft"></path><path d="M742 407L1080 69" stroke-width="6" stroke="url(#SvgjsLinearGradient1040)" stroke-linecap="round" class="BottomLeft"></path><path d="M1152 286L1454 -16" stroke-width="10" stroke="url(#SvgjsLinearGradient1040)" stroke-linecap="round" class="BottomLeft"></path><path d="M894 136L477 553" stroke-width="10" stroke="url(#SvgjsLinearGradient1039)" stroke-linecap="round" class="TopRight"></path><path d="M493 241L636 98" stroke-width="6" stroke="url(#SvgjsLinearGradient1039)" stroke-linecap="round" class="TopRight"></path><path d="M632 84L319 397" stroke-width="8" stroke="url(#SvgjsLinearGradient1039)" stroke-linecap="round" class="TopRight"></path><path d="M770 182L964 -12" stroke-width="10" stroke="url(#SvgjsLinearGradient1039)" stroke-linecap="round" class="TopRight"></path><path d="M571 290L762 99" stroke-width="10" stroke="url(#SvgjsLinearGradient1040)" stroke-linecap="round" class="BottomLeft"></path><path d="M38 120L391 -233" stroke-width="10" stroke="url(#SvgjsLinearGradient1039)" stroke-linecap="round" class="TopRight"></path><path d="M140 367L-258 765" stroke-width="10" stroke="url(#SvgjsLinearGradient1039)" stroke-linecap="round" class="TopRight"></path></g><defs><mask id="SvgjsMask1038"><rect width="1440" height="560" fill="#ffffff"></rect></mask><linearGradient x1="0%" y1="100%" x2="100%" y2="0%" id="SvgjsLinearGradient1039"><stop stop-color="rgba(197, 197, 197, 0)" offset="0"></stop><stop stop-color="rgba(197, 197, 197, 1)" offset="1"></stop></linearGradient><linearGradient x1="100%" y1="0%" x2="0%" y2="100%" id="SvgjsLinearGradient1040"><stop stop-color="rgba(197, 197, 197, 0)" offset="0"></stop><stop stop-color="rgba(197, 197, 197, 1)" offset="1"></stop></linearGradient></defs></svg>